# xmcd
#
# Track frame offsets:
#	150
#	19594
#	41169
#	62819
#	85726
#	113881
#	135384
#	160118
#	190519
#	209111
#
# Disc length: 3101 seconds
#
# Revision: 2
# Processed by: cddbd v1.5.2PL0 Copyright (c) Steve Scherf et al.
# Submitted via: EZCDAudioConverter 8.0.2.1
#
DISCID=820c1b0a
DTITLE=Phi Nhung - Bao Giờ Ta Lại Gặp Ta
DYEAR=2012
DGENRE=World Pop
TTITLE0=Bạc trắng lửa hồng
TTITLE1=Bao Giờ Ta Lại Gặp Ta
TTITLE2=Chị đi tìm em
TTITLE3=Tủi phận
TTITLE4=Hồn trinh nữ
TTITLE5=Đừng nhắc chuyện lòng
TTITLE6=Giờ xa lắm rồi
TTITLE7=Giọt mưa thu
TTITLE8=Sóc Sờ Bai Sóc Trăng
TTITLE9=Thương chị
EXTD=
EXTT0=
EXTT1=
EXTT2=
EXTT3=
EXTT4=
EXTT5=
EXTT6=
EXTT7=
EXTT8=
EXTT9=
PLAYORDER=
